<?xml version="1.0" encoding="UTF-8" standalone="no"?>
<svg
   xmlns:dc="http://purl.org/dc/elements/1.1/"
   xmlns:cc="http://creativecommons.org/ns#"
   xmlns:rdf="http://www.w3.org/1999/02/22-rdf-syntax-ns#"
   xmlns:svg="http://www.w3.org/2000/svg"
   xmlns="http://www.w3.org/2000/svg"
   xmlns:sodipodi="http://sodipodi.sourceforge.net/DTD/sodipodi-0.dtd"
   xmlns:inkscape="http://www.inkscape.org/namespaces/inkscape"
   width="19.886999mm"
   height="17.068001mm"
   viewBox="0 0 19.886999 17.068001"
   version="1.1"
   id="svg8"
   inkscape:version="1.0.2 (e86c870879, 2021-01-15, custom)"
   sodipodi:docname="pdlogo.svg">
  <defs
     id="defs2" />
  <sodipodi:namedview
     id="base"
     pagecolor="#ffffff"
     bordercolor="#666666"
     borderopacity="1.0"
     inkscape:pageopacity="0.0"
     inkscape:pageshadow="2"
     inkscape:zoom="4.4529024"
     inkscape:cx="41.180568"
     inkscape:cy="9.4703286"
     inkscape:document-units="mm"
     inkscape:current-layer="layer1"
     showgrid="false"
     inkscape:window-width="1920"
     inkscape:window-height="1024"
     inkscape:window-x="0"
     inkscape:window-y="26"
     inkscape:window-maximized="1"
     inkscape:document-rotation="0">
    <inkscape:grid
       type="xygrid"
       id="grid1035" />
  </sodipodi:namedview>
  <metadata
     id="metadata5">
    <rdf:RDF>
      <cc:Work
         rdf:about="">
        <dc:format>image/svg+xml</dc:format>
        <dc:type
           rdf:resource="http://purl.org/dc/dcmitype/StillImage" />
        <dc:title></dc:title>
      </cc:Work>
    </rdf:RDF>
  </metadata>
  <g
     inkscape:label="Capa 1"
     inkscape:groupmode="layer"
     id="layer1"
     transform="translate(0,-279.802)">
    <g
       id="g1259"
       transform="translate(0.6051545,-9.9569181)">
      <g
         id="g1728"
         transform="translate(-0.61963003,-0.58278575)">
        <g
           id="g961"
           transform="rotate(89.686312,3.3400925,293.69261)">
          <path
             style="fill:#484848;fill-opacity:1;stroke:none;stroke-width:0.264583px;stroke-linecap:butt;stroke-linejoin:miter;stroke-opacity:1"
             d="m 0,296.99999 h 9.2604166 v -1.32292 h 5.2916674 v -1.32291 H 15.875 v -9.26042 h -1.322916 v -5.29167 H 9.2604166 v 1.32292 h -5.291667 v 1.32291 H 2.645834 v 1.32292 H 1.322917 v 7.9375 H 0 Z"
             id="path1242"
             inkscape:connector-curvature="0" />
          <path
             style="fill:#a0e050;fill-opacity:1;stroke:none;stroke-width:0.264583px;stroke-linecap:butt;stroke-linejoin:miter;stroke-opacity:1"
             d="m 1.322917,295.67707 h 6.6145826 v -1.32291 h -1.322916 v -2.64584 h 1.322916 v -1.32291 h 1.322917 v 1.32291 h 1.3229174 v 2.64584 h 2.645833 v -1.32292 h 1.322917 v -6.61458 h -1.322917 v -1.32292 H 11.90625 v -1.32292 h 1.322917 v -2.64583 h -2.645833 v 2.64583 H 9.2604166 v -1.32292 h -3.96875 v 1.32292 h -1.322917 v 1.32292 H 2.645834 v 7.9375 H 1.322917 Z"
             id="path1037"
             inkscape:connector-curvature="0" />
          <path
             inkscape:connector-curvature="0"
             id="rect1052-62-9-2"
             style="opacity:1;fill:#68b838;fill-opacity:1;stroke:none;stroke-width:0.264583"
             d="m 10.583333,289.06249 h 1.322917 v 1.32292 h -1.322917 z m -6.6145824,0 h 1.322917 v 1.32292 h -1.322917 z m 0,2.64584 h 1.322917 v 1.32292 h -1.322917 z m -2.6458356,1.32291 h 1.322917 v 1.32292 H 1.322915 Z m 1.322918,-7.9375 h 1.3229166 v 1.32292 H 2.645833 Z m 2.6458356,-2.64584 h 3.96875 v 1.32292 h -3.96875 z m 3.96875,1.32293 h 1.3229174 v 1.32292 H 9.2604186 Z m 1.3229144,-1.32292 h 1.322917 v 1.32292 h -1.322917 z m 1.322918,2.64583 h 1.322917 v 1.32292 h -1.322917 z m -10e-7,9.26042 h 1.322917 v -1.32292 h 1.322917 v -6.61458 h -1.322917 v 5.29166 H 11.90625 Z" />
          <path
             inkscape:connector-curvature="0"
             id="rect1165-6"
             style="opacity:1;fill:#288860;fill-opacity:1;stroke:none;stroke-width:0.264583"
             d="m 5.2916646,290.38541 h 1.322917 v 1.32292 h -1.322917 z m 0,-1.32292 h 1.322917 v 1.32292 h -1.322917 z m 1.322918,0 h 1.322917 v 1.32292 h -1.322917 z m 1.322918,-1.32291 h 1.322917 v 1.32292 h -1.322917 z m 1.322918,-1.32292 h 1.3229174 v 1.32292 H 9.2604186 Z m -2.645836,-1.32292 H 10.58333 v 1.32292 H 6.6145826 Z m 3.9687504,-1.32291 h 1.322917 v 5.29167 h -1.322917 z m 1.322918,-1.32293 h 1.322917 v 1.32292 h -1.322917 z" />
        </g>
        <g
           id="g1713"
           transform="translate(25.843897,3.2684149)">
          <g
             id="g1632">
            <rect
               style="fill:#ffffff;fill-opacity:1;fill-rule:evenodd;stroke-width:0.264583"
               id="rect124-7-5"
               width="1.3301429"
               height="1.3156543"
               x="-15.253295"
               y="290.98465" />
            <path
               id="rect124-7-3-26"
               style="fill:#2568a3;fill-opacity:1;fill-rule:evenodd;stroke-width:0.264583"
               d="m -16.583439,297.56286 h 1.330143 v 1.31565 h -1.330143 z m -1.330143,-1.31565 h 1.330143 v 1.31566 h -1.330143 z m 1.330143,0 h 1.330143 v 1.31566 h -1.330143 z m 3.99043,-1.31564 h 1.330143 v 1.31565 h -1.330143 z m -1.330143,1.31564 1.330143,-1.31564 v 1.31565 h -1.330143 z m -1.330143,0 h 1.330143 v 1e-5 h -1.330143 z m 0,0 h 1.330143 v 1e-5 h -1.330143 z m -1.330144,-1.31564 1.330143,1.31564 v 1e-5 h -1.330143 z m -1.330143,0 h 1.330143 v 1.31565 h -1.330143 z m 5.320573,-1.31564 h 1.330143 v 1.31565 h -1.330143 z m 0,-1.31565 h 1.330143 v 1.31566 h -1.330143 z m 0,-1.31564 h 1.330143 v 1.31565 h -1.330143 z m -1.330143,2.63129 h 1.330143 v 1.31565 l -1.330143,1.31564 z m -2.660287,0 h 1.330143 v 2.63129 l -1.330143,-1.31564 z m 1.330144,0 h 1.330143 v 2.63129 h -1.330143 z m 1.330143,-1.31565 h 1.330143 v 1.31566 h -1.330143 z m -1.330143,0 h 1.330143 v 1.31566 h -1.330143 z m 1.330143,-1.31564 h 1.330143 v 1.31565 h -1.330143 z"
               sodipodi:nodetypes="cccccccccccccccccccccccccccccccccccccccccccccccccccccccccccccccccccccccccccccccccccccccccc" />
          </g>
          <g
             id="g1636"
             transform="translate(0,-2e-5)">
            <rect
               style="fill:#ffffff;fill-opacity:1;fill-rule:evenodd;stroke-width:0.264583"
               id="rect124-7-5-7"
               width="1.3301429"
               height="1.3156543"
               x="9.932723"
               y="-302.82541"
               transform="scale(-1)" />
            <path
               id="rect124-7-3-26-9"
               style="fill:#ffe22f;fill-opacity:1;fill-rule:evenodd;stroke-width:0.264583"
               d="m -8.602578,296.24723 h -1.330144 v -1.31565 h 1.330144 z m 1.330143,1.31565 h -1.330143 v -1.31566 h 1.330143 z m -1.330143,0 h -1.330144 v -1.31566 h 1.330144 z m -3.990431,1.31564 h -1.330143 v -1.31565 h 1.330143 z m 1.330143,-1.31564 -1.330143,1.31564 v -1.31565 h 1.330143 z m 1.330143,0 h -1.330143 v -1e-5 h 1.330143 z m 0,0 h -1.330143 v -1e-5 h 1.330143 z m 1.330145,1.31564 -1.330144,-1.31564 v -1e-5 h 1.330144 z m 1.330143,0 h -1.330143 v -1.31565 h 1.330143 z m -5.320574,1.31563 h -1.330143 v -1.31565 h 1.330143 z m 0,1.31565 h -1.330143 v -1.31565 h 1.330143 z m 0,1.31564 h -1.330143 v -1.31565 h 1.330143 z m 1.330143,-2.63129 h -1.330143 v -1.31565 l 1.330143,-1.31563 z m 2.660288,0 h -1.330144 v -2.63128 l 1.330144,1.31563 z m -1.330145,0 h -1.330143 v -2.63128 h 1.330143 z m -1.330143,1.31565 h -1.330143 v -1.31565 h 1.330143 z m 1.330143,0 h -1.330143 v -1.31565 h 1.330143 z m -1.330143,1.31564 h -1.330143 v -1.31565 h 1.330143 z"
               sodipodi:nodetypes="cccccccccccccccccccccccccccccccccccccccccccccccccccccccccccccccccccccccccccccccccccccccccc" />
          </g>
          <path
             id="rect124-7-5-7-0-30"
             style="fill:#484848;fill-opacity:1;fill-rule:evenodd;stroke-width:0.264583"
             transform="scale(-1)"
             d="m 8.602581,-294.93158 h 1.3301429 v 1.31565 H 8.602581 Z m -1.3301458,-1.31564 H 8.602578 v 1.31565 H 7.2724352 Z m -1.330143,-1.31565 h 1.3301429 v 1.31566 H 5.9422922 Z m 5e-7,-1.31564 h 1.3301428 v 1.31565 H 5.9422927 Z m 1.3301425,-1.31564 H 8.602578 v 1.31565 H 7.2724352 Z m 1.3301449,-1.31565 h 1.3301428 v 1.31566 H 8.6025801 Z m 0,-1.31561 h 1.3301428 v 1.31566 H 8.6025801 Z m 1.3301429,-1.31564 h 1.330143 v 1.31565 H 9.932723 Z m 1.330143,0 h 1.330143 v 1.31565 h -1.330143 z m 1.330143,-3e-5 h 1.330143 v 1.31565 h -1.330143 z m 1.330143,1.31564 h 1.330143 v 1.31565 h -1.330143 z m 0,1.31564 h 1.330143 v 1.31566 h -1.330143 z m 0,1.31565 h 1.330143 v 1.31565 h -1.330143 z m 1.330144,0 h 1.330143 v 1.31565 h -1.330143 z m -1.330143,1.31564 h 1.330143 v 1.31565 h -1.330143 z m 0,1.31564 h 1.330143 v 1.31566 h -1.330143 z m -1.330144,0 h 1.330143 v 1.31566 h -1.330143 z m -1.330143,0 h 1.330143 v 1.31566 h -1.330143 z m -1.330143,0 h 1.330143 v 1.31566 H 9.932723 Z m -9e-7,1.31565 h 1.3301429 v 1.31565 H 9.9327221 Z m 9e-7,1.31564 h 1.330143 v 1.31565 H 9.932723 Z m 0,1.31564 h 1.330143 v 1.31566 H 9.932723 Z m 0,1.31565 h 1.330143 v 1.31565 H 9.932723 Z m 1.330143,1.31564 h 1.330143 v 1.31565 h -1.330143 z m 1.330143,0 h 1.330143 v 1.31565 h -1.330143 z m 1.330143,0 h 1.330143 v 1.31565 h -1.330143 z m 1.330143,-1.31564 h 1.330143 v 1.31565 h -1.330143 z m 0,-1.31565 h 1.330143 v 1.31566 h -1.330143 z m 1.330144,-1.31564 h 1.330143 v 1.31565 h -1.330143 z m 1.330143,-1.31564 h 1.330143 v 1.31565 h -1.330143 z m 0,-1.31565 h 1.330143 v 1.31566 h -1.330143 z m -1.330143,-1.31564 h 1.330143 v 1.31565 h -1.330143 z m -1.330144,7.89386 h -1.330143 v 0 z"
             sodipodi:nodetypes="ccccccccccccccccccccccccccccccccccccccccccccccccccccccccccccccccccccccccccccccccccccccccccccccccccccccccccccccccccccccccccccccccccccccccccccccccccccccccccccccccccccc" />
        </g>
      </g>
    </g>
  </g>
</svg>
