<?xml version="1.0" encoding="UTF-8" standalone="no"?>
<svg
   xmlns:dc="http://purl.org/dc/elements/1.1/"
   xmlns:cc="http://creativecommons.org/ns#"
   xmlns:rdf="http://www.w3.org/1999/02/22-rdf-syntax-ns#"
   xmlns:svg="http://www.w3.org/2000/svg"
   xmlns="http://www.w3.org/2000/svg"
   xmlns:sodipodi="http://sodipodi.sourceforge.net/DTD/sodipodi-0.dtd"
   xmlns:inkscape="http://www.inkscape.org/namespaces/inkscape"
   width="6.2969999mm"
   height="6.2280002mm"
   viewBox="0 0 6.2969999 6.2280001"
   version="1.1"
   id="svg8"
   inkscape:version="1.0.2 (e86c870879, 2021-01-15, custom)"
   sodipodi:docname="warning.svg">
  <defs
     id="defs2" />
  <sodipodi:namedview
     id="base"
     pagecolor="#ffffff"
     bordercolor="#666666"
     borderopacity="1.0"
     inkscape:pageopacity="0.0"
     inkscape:pageshadow="2"
     inkscape:zoom="12.59471"
     inkscape:cx="26.691711"
     inkscape:cy="23.648542"
     inkscape:document-units="mm"
     inkscape:current-layer="layer1"
     showgrid="false"
     inkscape:window-width="1920"
     inkscape:window-height="1144"
     inkscape:window-x="0"
     inkscape:window-y="26"
     inkscape:window-maximized="1"
     inkscape:document-rotation="0">
    <inkscape:grid
       type="xygrid"
       id="grid1035" />
  </sodipodi:namedview>
  <metadata
     id="metadata5">
    <rdf:RDF>
      <cc:Work
         rdf:about="">
        <dc:format>image/svg+xml</dc:format>
        <dc:type
           rdf:resource="http://purl.org/dc/dcmitype/StillImage" />
        <dc:title></dc:title>
      </cc:Work>
    </rdf:RDF>
  </metadata>
  <g
     inkscape:label="Capa 1"
     inkscape:groupmode="layer"
     id="layer1"
     transform="translate(0,-279.802)">
    <g
       id="g4325"
       transform="matrix(0.43034416,0,0,0.43034416,-10.559085,158.17575)">
      <path
         id="rect3771-24"
         style="fill:#fe0000;fill-opacity:1;stroke-width:0.264583"
         d="m 35.177517,291.83505 h 1.330143 v 1.31565 h -1.330143 z m 0,-1.31564 h 1.330143 v 1.31565 h -1.330143 z m -1.330143,-1.31564 h 1.330143 v 1.31565 h -1.330143 z m 0,-1.31565 h 1.330143 v 1.31565 h -1.330143 z m -1.330143,-1.31564 h 1.330143 v 1.31565 h -1.330143 z m 0,-1.31564 h 1.330143 v 1.31565 h -1.330143 z m -1.330143,-1.31565 h 1.330143 v 1.31565 h -1.330143 z m -1.330143,2.63129 h 1.330143 v 1.31565 h -1.330143 z m 0,-1.31564 h 1.330143 v 1.31565 h -1.330143 z m -1.330143,2.63128 h 1.330143 v 1.31565 h -1.330143 z m 0,1.31565 h 1.330143 v 1.31565 h -1.330143 z m -1.330143,2.63128 h 1.330143 v 1.31565 h -1.330143 z m 0,-1.31564 h 1.330143 v 1.31565 h -1.330143 z m 9.311001,2.63129 h 1.330143 v 1.31565 H 36.50766 Z m 0,1.31564 h 1.330143 v 1.31565 H 36.50766 Z m -1.330143,0 h 1.330143 v 1.31565 h -1.330143 z m -1.330143,0 h 1.330143 v 1.31565 h -1.330143 z m -1.330139,0 h 1.330143 v 1.31565 h -1.330143 z m -1.330145,0 h 1.330143 v 1.31565 H 31.18709 Z m -1.330143,0 h 1.330143 v 1.31565 h -1.330143 z m -1.330143,0 h 1.330143 v 1.31565 h -1.330143 z m -1.330145,0 h 1.330143 v 1.31565 h -1.330143 z m -1.330143,0 h 1.330143 v 1.31565 h -1.330143 z m 0,-1.31564 h 1.330143 v 1.31565 h -1.330143 z" />
      <path
         id="rect3771-28"
         style="fill:#484848;fill-opacity:1;stroke-width:0.264583"
         d="m 31.187088,291.83505 h 1.330143 v 1.31565 h -1.330143 z m 0,-2.63128 h 1.330143 v 1.31565 h -1.330143 z m 0,-1.31565 h 1.330143 v 1.31565 h -1.330143 z m -3.990429,7.89386 h 1.330143 v 1.31565 h -1.330143 z m 1.330145,0 h 1.330143 v 1.31565 h -1.330143 z m 1.330143,0 h 1.330143 v 1.31565 h -1.330143 z m 1.330141,0 h 1.330143 v 1.31565 h -1.330143 z m 1.330143,0 h 1.330143 v 1.31565 h -1.330143 z m 1.330143,0 h 1.330143 v 1.31565 h -1.330143 z m 1.330143,0 h 1.330143 v 1.31565 h -1.330143 z m 1.330143,0 h 1.330143 v 1.31565 H 36.50766 Z m 1.330143,-1.31564 h 1.330143 v 1.31565 h -1.330143 z m 0,-1.31564 h 1.330143 v 1.31565 h -1.330143 z m -1.330143,-1.31565 h 1.330143 v 1.31565 H 36.50766 Z m 0,-1.31564 h 1.330143 v 1.31565 H 36.50766 Z m -1.330143,-1.31564 h 1.330143 v 1.31565 h -1.330143 z m 0,-1.31565 h 1.330143 v 1.31565 h -1.330143 z m -1.330143,-1.31564 h 1.330143 v 1.31565 h -1.330143 z m 0,-1.31564 h 1.330143 v 1.31565 h -1.330143 z m -1.330143,-1.31565 h 1.330143 v 1.31565 h -1.330143 z m -1.330143,-1.31564 h 1.330143 v 1.31565 h -1.330143 z m -1.330143,1.31564 h 1.330143 v 1.31565 h -1.330143 z m -1.330143,1.31565 h 1.330143 v 1.31565 h -1.330143 z m 0,1.31564 h 1.330143 v 1.31565 h -1.330143 z m -1.330143,1.31564 h 1.330143 v 1.31565 h -1.330143 z m 0,1.31565 h 1.330143 v 1.31565 h -1.330143 z m -1.330143,1.31564 h 1.330143 v 1.31565 h -1.330143 z m 0,1.31564 h 1.330143 v 1.31565 h -1.330143 z m 0,3.94693 h 1.330143 v 1.31565 h -1.330143 z m -1.330143,-1.31564 h 1.330143 v 1.31565 h -1.330143 z m 0,-1.31564 h 1.330143 v 1.31565 h -1.330143 z" />
      <path
         id="rect3771-110"
         style="fill:#ffe22f;fill-opacity:1;stroke-width:0.264583"
         d="m 31.18709,285.25684 h 1.330143 v 1.31565 H 31.18709 Z m -2e-6,1.31564 h 1.330143 v 1.31565 h -1.330143 z m 1.330143,2.63129 h 1.330143 v 1.31565 h -1.330143 z m 0,-1.31565 h 1.330143 v 1.31565 h -1.330143 z m -2.660286,0 h 1.330143 v 1.31565 h -1.330143 z m 0,1.31565 h 1.330143 v 1.31565 h -1.330143 z m -2.660286,3.94693 h 1.330143 v 1.31565 h -1.330143 z m 1.330143,0 h 1.330143 v 1.31565 h -1.330143 z m 1.330145,0 h 1.330143 v 1.31565 h -1.330143 z m 1.330143,0 h 1.330143 v 1.31565 H 31.18709 Z m 1.330145,0 h 1.330143 v 1.31565 h -1.330143 z m 1.330139,0 h 1.330143 v 1.31565 h -1.330143 z m 1.330143,0 h 1.330143 v 1.31565 h -1.330143 z m -1.330143,-1.31565 h 1.330143 v 1.31565 h -1.330143 z m -1.330143,0 h 1.330143 v 1.31565 h -1.330143 z m -2.660286,0 h 1.330143 v 1.31565 h -1.330143 z m -1.330143,0 h 1.330143 v 1.31565 h -1.330143 z m 0,-1.31564 h 1.330143 v 1.31565 h -1.330143 z m 1.330143,0 h 1.330143 v 1.31565 h -1.330143 z m 1.330143,0 h 1.330143 v 1.31565 h -1.330143 z m 1.330143,0 h 1.330143 v 1.31565 h -1.330143 z m 1.330143,0 h 1.330143 v 1.31565 h -1.330143 z" />
    </g>
  </g>
</svg>
