<?xml version="1.0" encoding="UTF-8" standalone="no"?>
<svg
   xmlns:dc="http://purl.org/dc/elements/1.1/"
   xmlns:cc="http://creativecommons.org/ns#"
   xmlns:rdf="http://www.w3.org/1999/02/22-rdf-syntax-ns#"
   xmlns:svg="http://www.w3.org/2000/svg"
   xmlns="http://www.w3.org/2000/svg"
   xmlns:sodipodi="http://sodipodi.sourceforge.net/DTD/sodipodi-0.dtd"
   xmlns:inkscape="http://www.inkscape.org/namespaces/inkscape"
   width="4.6100001mm"
   height="6.2179999mm"
   viewBox="0 0 4.6100001 6.2180001"
   version="1.1"
   id="svg8"
   inkscape:version="1.0.2 (e86c870879, 2021-01-15, custom)"
   sodipodi:docname="worm.svg">
  <defs
     id="defs2" />
  <sodipodi:namedview
     id="base"
     pagecolor="#ffffff"
     bordercolor="#666666"
     borderopacity="1.0"
     inkscape:pageopacity="0.0"
     inkscape:pageshadow="2"
     inkscape:zoom="2.8284271"
     inkscape:cx="3.2233855"
     inkscape:cy="-38.710374"
     inkscape:document-units="mm"
     inkscape:current-layer="layer1"
     inkscape:document-rotation="0"
     showgrid="false"
     inkscape:window-width="1920"
     inkscape:window-height="1144"
     inkscape:window-x="0"
     inkscape:window-y="26"
     inkscape:window-maximized="1" />
  <metadata
     id="metadata5">
    <rdf:RDF>
      <cc:Work
         rdf:about="">
        <dc:format>image/svg+xml</dc:format>
        <dc:type
           rdf:resource="http://purl.org/dc/dcmitype/StillImage" />
        <dc:title></dc:title>
      </cc:Work>
    </rdf:RDF>
  </metadata>
  <g
     inkscape:label="Capa 1"
     inkscape:groupmode="layer"
     id="layer1">
    <g
       id="g2572"
       transform="matrix(0.31508393,0,0,0.31508393,-58.763575,-78.876731)">
      <path
         id="rect1576-30"
         style="fill:#484848;fill-opacity:1;stroke-width:0.264583"
         d="m 191.8219,250.33563 h 1.33014 v 1.31565 h -1.33014 z m 1.33014,-1e-5 h 1.33014 v 1.31565 h -1.33014 z m 1.33014,1.31564 h 1.33014 v 1.31565 h -1.33014 z m 1.33014,1.31564 h 1.33014 v 1.31565 h -1.33014 z m 0,1.31565 h 1.33014 v 1.31565 h -1.33014 z m 0,1.31566 h 1.33014 v 1.31565 h -1.33014 z m 0,1.31564 h 1.33014 v 1.31565 h -1.33014 z m -1.33014,1.31564 h 1.33014 v 1.31565 h -1.33014 z m -1.33014,1.31565 h 1.33014 v 1.31565 h -1.33014 z m 0,1.31564 h 1.33014 v 1.31565 h -1.33014 z m 0,1.31564 h 1.33014 v 1.31565 h -1.33014 z m 0,1.31565 h 1.33014 v 1.31565 h -1.33014 z m 0,1.31564 h 1.33014 v 1.31565 h -1.33014 z m 1.33014,0 h 1.33014 v 1.31565 h -1.33014 z m 1.33014,0 h 1.33014 v 1.31565 h -1.33014 z m 1.33014,0 h 1.33014 v 1.31565 h -1.33014 z m 1.33014,0 h 1.33014 v 1.31565 h -1.33014 z m 1.33013,1.31564 h 1.33015 v 1.31565 h -1.33015 z m 0,1.31565 h 1.33015 v 1.31565 h -1.33015 z m -1.33013,1.31564 h 1.33014 v 1.31565 h -1.33014 z m -1.33014,0 h 1.33014 v 1.31565 h -1.33014 z m -1.33014,0 h 1.33014 v 1.31565 h -1.33014 z m -1.33014,0 h 1.33014 v 1.31565 h -1.33014 z m -1.33014,0 h 1.33014 v 1.31565 h -1.33014 z m -1.33014,0 h 1.33014 v 1.31565 h -1.33014 z m -1.33014,0 h 1.33014 v 1.31565 h -1.33014 z m -1.33014,-1.31564 h 1.33014 v 1.31565 h -1.33014 z m 0,-1.31565 h 1.33014 v 1.31565 h -1.33014 z m 0,-1.31564 h 1.33014 v 1.31565 h -1.33014 z m 0,-1.31564 h 1.33014 v 1.31565 h -1.33014 z m 0,-1.31565 h 1.33014 v 1.31565 h -1.33014 z m 0,-1.31564 h 1.33014 v 1.31565 h -1.33014 z m 0,-1.31564 h 1.33014 v 1.31565 h -1.33014 z m -1.33014,-1.31565 h 1.33014 v 1.31565 h -1.33014 z m -1.33014,-1.31564 h 1.33015 v 1.31565 h -1.33015 z m 0,-1.31564 h 1.33015 v 1.31565 h -1.33015 z m 0,-1.31565 h 1.33015 v 1.31565 h -1.33015 z m 0,0 h 1.33015 v 1.31565 h -1.33015 z m 0,-1.31564 h 1.33015 v 1.31565 h -1.33015 z m 3.99042,-2.63129 h 1.33014 v 1.31565 h -1.33014 z m -1.33014,0 h 1.33014 v 1.31565 h -1.33014 z m -1.33014,1.31565 h 1.33014 v 1.31565 h -1.33014 z" />
      <path
         id="rect1576-64"
         style="fill:#288860;fill-opacity:1;stroke-width:0.264583"
         d="m 197.14246,267.439 h 1.33014 v 1.31565 h -1.33014 z m 1.33014,0 h 1.33014 v 1.31565 h -1.33014 z m -1.33014,-1.31565 h 1.33014 v 1.31565 h -1.33014 z m -2.66028,1.31565 h 1.33014 v 1.31565 h -1.33014 z m 0,-1.31565 h 1.33014 v 1.31565 h -1.33014 z m -1.33014,1.31565 h 1.33014 v 1.31565 h -1.33014 z m -2.66028,-1.31565 h 1.33014 v 1.31565 h -1.33014 z m 1.33014,-1.31564 h 1.33014 v 1.31565 h -1.33014 z m -1.33014,0 h 1.33014 v 1.31565 h -1.33014 z m 1.33014,-2.63129 h 1.33014 v 1.31565 h -1.33014 z m 0,-1.31564 h 1.33014 v 1.31565 h -1.33014 z m -1.33014,1.31564 h 1.33014 v 1.31565 h -1.33014 z m 0,-1.31564 h 1.33014 v 1.31565 h -1.33014 z" />
      <path
         id="rect1576-4"
         style="fill:#a0e050;fill-opacity:1;stroke-width:0.264583"
         d="m 190.49176,267.439 h 1.33014 v 1.31565 h -1.33014 z m 1.33014,0 h 1.33014 v 1.31565 h -1.33014 z m 3.99042,-1.31565 h 1.33014 v 1.31565 h -1.33014 z m 0,1.31565 h 1.33014 v 1.31565 h -1.33014 z" />
      <path
         id="rect1576-776"
         style="fill:#68b838;fill-opacity:1;stroke-width:0.529164"
         d="m 187.83148,252.96693 c 0.44338,0 0.88676,0 1.33014,0 0,1.75419 0,3.50838 0,5.26257 -0.44338,0 -0.88676,0 -1.33014,0 0,-1.75419 0,-3.50838 0,-5.26257 z m 1.33014,0 c 0.44338,0 0.88676,0 1.33014,0 0,1.75419 0,3.50838 0,5.26257 -0.44338,0 -0.88676,0 -1.33014,0 0,-1.75419 0,-3.50838 0,-5.26257 z m 1.33014,0 c 0.44338,0 0.88676,0 1.33014,0 0,1.75419 0,3.50838 0,5.26257 -0.44338,0 -0.88676,0 -1.33014,0 0,-1.75419 0,-3.50838 0,-5.26257 z m 1.33014,0 c 0.44338,0 0.88676,0 1.33014,0 0,1.75419 0,3.50838 0,5.26257 -0.44338,0 -0.88676,0 -1.33014,0 0,-1.75419 0,-3.50838 0,-5.26257 z m 1.33014,0 c 0.44338,0 0.88676,0 1.33014,0 0,1.75419 0,3.50838 0,5.26257 -0.44338,0 -0.88676,0 -1.33014,0 0,-1.75419 0,-3.50838 0,-5.26257 z m 1.33014,0 c 0.44338,0 0.88676,0 1.33014,0 0,1.75419 0,3.50838 0,5.26257 -0.44338,0 -0.88676,0 -1.33014,0 0,-1.75419 0,-3.50838 0,-5.26257 z m -1.33014,-1.31565 h 1.33014 v 7.89386 h -1.33014 z m -1.33014,0 h 1.33014 v 7.89386 h -1.33014 z m -1.33014,0 h 1.33014 v 7.89386 h -1.33014 z m -1.33014,0 h 1.33014 v 7.89386 h -1.33014 z m 2.66028,7.89386 h 1.33014 v 1.31565 h -1.33014 z m -1.33014,0 h 1.33014 v 1.31565 h -1.33014 z m 1.33014,3.94693 h 1.33014 v 1.31565 h -1.33014 z m -1.33014,0 h 1.33014 v 1.31565 h -1.33014 z m 2.66028,2.63128 h 1.33014 v 1.31565 h -1.33014 z m -1.33014,0 h 1.33014 v 1.31565 h -1.33014 z m 6.6507,0 h 1.33014 v 1.31565 h -1.33014 z" />
      <rect
         style="fill:#484848;fill-opacity:1;stroke-width:0.264583"
         id="rect1576-63-8"
         width="1.3301427"
         height="1.31565"
         x="189.16162"
         y="254.28258" />
      <rect
         style="fill:#484848;fill-opacity:1;stroke-width:0.264583"
         id="rect1576-63-2"
         width="1.3301427"
         height="1.31565"
         x="193.15204"
         y="254.28255" />
      <rect
         style="fill:#484848;fill-opacity:1;stroke-width:0.264583"
         id="rect1576-63"
         width="1.3301427"
         height="1.31565"
         x="190.49176"
         y="256.91385" />
      <rect
         style="fill:#484848;fill-opacity:1;stroke-width:0.264583"
         id="rect1576-63-9"
         width="1.3301427"
         height="1.31565"
         x="191.8219"
         y="256.91385" />
      <rect
         style="fill:#fcb797;fill-opacity:1;stroke-width:0.264583"
         id="rect1576-63-90"
         width="1.3301427"
         height="1.31565"
         x="193.15204"
         y="255.59819" />
      <rect
         style="fill:#fcb797;fill-opacity:1;stroke-width:0.264583"
         id="rect1576-63-90-8"
         width="1.3301427"
         height="1.31565"
         x="189.16162"
         y="255.59822" />
    </g>
  </g>
</svg>
